<svg preserveAspectRatio="none" overflow="visible" style="display: block;" width="24" height="24" viewBox="0 0 24 24" fill="none" xmlns="http://www.w3.org/2000/svg">
<g id="logout">
<path id="shape" fill-rule="evenodd" clip-rule="evenodd" d="M3.85 12C3.85 9.99114 3.85026 8.45417 3.91138 7.26228C3.97331 6.05473 4.09506 5.30104 4.28921 4.81568C4.45862 4.39215 4.66918 4.20039 4.99558 4.07345C5.3963 3.91762 6.00385 3.85 7 3.85C7.9738 3.85 8.65324 3.91173 9.12811 4.01726C9.60147 4.12245 9.80449 4.25657 9.89896 4.35104C9.9832 4.43528 10.0546 4.56045 10.0991 4.82724C10.1476 5.11838 10.15 5.47844 10.15 6C10.15 6.46944 10.5306 6.85 11 6.85C11.4694 6.85 11.85 6.46944 11.85 6L11.85 5.95743V5.95741C11.8501 5.49112 11.8501 4.99303 11.7759 4.54776C11.6954 4.06455 11.5168 3.56472 11.101 3.14896C10.6955 2.74343 10.1485 2.50255 9.49689 2.35774C8.84676 2.21327 8.0262 2.15 7 2.15C5.99615 2.15 5.1037 2.20738 4.37942 2.48905C3.58082 2.79961 3.04138 3.35785 2.71079 4.18432C2.40494 4.94896 2.27669 5.94527 2.21362 7.17522C2.15 8.41572 2.15 9.99584 2.15 11.9755V11.9757V12V12.0243V12.0245C2.15 14.0042 2.15 15.5843 2.21362 16.8248C2.27669 18.0547 2.40494 19.051 2.71079 19.8157C3.04138 20.6421 3.58082 21.2004 4.37942 21.511C5.1037 21.7926 5.99615 21.85 7 21.85C8.0262 21.85 8.84676 21.7867 9.49689 21.6423C10.1485 21.4975 10.6955 21.2566 11.101 20.851C11.5168 20.4353 11.6954 19.9355 11.7759 19.4522C11.8501 19.007 11.8501 18.5089 11.85 18.0426V18.0426L11.85 18C11.85 17.5306 11.4694 17.15 11 17.15C10.5306 17.15 10.15 17.5306 10.15 18C10.15 18.5216 10.1476 18.8816 10.0991 19.1728C10.0546 19.4396 9.9832 19.5647 9.89896 19.649C9.80449 19.7434 9.60147 19.8776 9.12811 19.9827C8.65324 20.0883 7.9738 20.15 7 20.15C6.00385 20.15 5.3963 20.0824 4.99558 19.9265C4.66918 19.7996 4.45862 19.6079 4.28921 19.1843C4.09506 18.699 3.97331 17.9453 3.91138 16.7377C3.85026 15.5458 3.85 14.0089 3.85 12ZM17.601 7.39896C17.2691 7.06701 16.7309 7.06701 16.399 7.39896C16.067 7.73091 16.067 8.26909 16.399 8.60104L18.9479 11.15H11C10.5306 11.15 10.15 11.5306 10.15 12C10.15 12.4694 10.5306 12.85 11 12.85H18.9479L16.399 15.399C16.067 15.7309 16.067 16.2691 16.399 16.601C16.7309 16.933 17.2691 16.933 17.601 16.601L21.601 12.601C21.933 12.2691 21.933 11.7309 21.601 11.399L17.601 7.39896Z" fill="#FF3B30"/>
</g>
</svg>
