<svg preserveAspectRatio="none" overflow="visible" style="display: block;" width="30" height="30" viewBox="0 0 30 30" fill="none" xmlns="http://www.w3.org/2000/svg">
<g id="Frame 7">
<rect width="30" height="30" fill="white"/>
<path id="Vector" d="M21.3437 22.9962V9.66625C21.3437 9.22433 21.1681 8.80052 20.8556 8.48803C20.5432 8.17555 20.1193 8 19.6774 8H11.3462C10.9043 8 10.4804 8.17555 10.168 8.48803C9.85547 8.80052 9.67992 9.22433 9.67992 9.66625V22.9962M21.3437 22.9962H23.0099M21.3437 22.9962H17.178M9.67992 22.9962H8.01367M9.67992 22.9962H13.8455M13.0124 11.3325H13.8455M13.0124 14.665H13.8455M17.178 11.3325H18.0112M17.178 14.665H18.0112M16.3449 22.9962V18.8306C16.3449 18.6097 16.4327 18.3978 16.5889 18.2415C16.7452 18.0853 16.9571 17.9975 17.178 17.9975H18.8443C19.0653 17.9975 19.2772 18.0853 19.4334 18.2415C19.5896 18.3978 19.6774 18.6097 19.6774 18.8306V22.9962H16.3449Z" stroke="#C7C7C7" stroke-width="1.66625" stroke-linecap="round" stroke-linejoin="round"/>
</g>
</svg>
